<svg width="357" height="356" viewBox="0 0 357 356" fill="none" xmlns="http://www.w3.org/2000/svg">
<path opacity="0.07" d="M324.467 150.055C324.467 151.988 324.424 153.922 324.295 155.726C342.775 169.773 357 199.888 357 226.393C357 255.262 340.11 268.879 319.267 256.851C319.224 256.808 319.181 256.808 319.138 256.765L188.191 181.286C188.148 181.243 188.105 181.243 188.019 181.2C164.597 167.668 145.602 130.423 145.602 97.9892C145.602 67.6173 162.277 52.195 183.636 61.5171C186.257 40.6821 200.224 31.7037 217.071 41.4553C225.15 46.1378 232.585 54.343 238.387 64.2235C246.81 51.7225 261.164 48.5435 277.409 57.9086C303.409 72.8582 324.467 114.142 324.467 150.055Z" fill="url(#paint0_linear)"/>
<path opacity="0.4" d="M302.979 170.676C302.979 172.609 302.936 174.542 302.807 176.346C321.287 190.394 335.512 220.508 335.512 247.014C335.512 275.882 318.623 289.5 297.779 277.471C297.736 277.428 297.693 277.428 297.65 277.385L166.703 201.907C166.66 201.864 166.617 201.864 166.531 201.821C143.109 188.289 124.114 151.043 124.114 118.61C124.114 88.2376 140.789 72.8154 162.148 82.1375C164.769 61.3024 178.736 52.324 195.583 62.0757C203.662 66.7582 211.097 74.9633 216.899 84.8439C225.322 72.3428 239.676 69.1639 255.921 78.5289C281.921 93.4786 302.979 134.762 302.979 170.676Z" fill="url(#paint1_linear)"/>
<path opacity="0.2" d="M95.6642 207.448L75.7234 195.935V189.191L95.6642 200.704C97.2972 201.649 99.6609 203.539 101.681 206.46C103.873 209.596 105.42 213.548 105.42 217.844C105.42 222.57 104.216 225.276 101.896 226.049C99.7469 226.78 97.2113 225.534 95.6212 224.632L87.4128 219.906L87.3698 219.863C86.6822 219.434 85.5648 219.047 84.6624 219.305C83.9318 219.52 83.1152 220.25 83.1152 222.87C83.1152 225.491 83.9318 227.123 84.6194 228.068C85.4789 229.271 86.5963 230.13 87.2839 230.474L87.3698 230.517L112.425 244.994V251.739L87.4988 237.348C85.7797 236.445 83.3301 234.555 81.1813 231.548C78.8606 228.283 77.2275 224.116 77.2705 219.477C77.2705 214.88 78.8606 212.517 81.1813 211.873C83.3301 211.272 85.7797 212.131 87.4988 213.205L95.6212 217.887C96.7815 218.575 97.684 218.875 98.2427 218.66C98.6725 218.532 99.532 217.887 99.532 214.45C99.532 212.26 98.8014 210.799 98.1568 209.811C97.3832 208.694 96.3088 207.835 95.6642 207.448Z" fill="white"/>
<path d="M80.0207 194.26C80.0207 199.801 76.7545 202.422 72.7578 200.145C68.761 197.825 65.4949 191.467 65.4949 185.883C65.4949 180.341 68.761 177.721 72.7578 179.997C76.7545 182.317 80.0207 188.718 80.0207 194.26Z" fill="#F4F4F4"/>
<path d="M122.567 253.973C122.567 259.514 119.301 262.135 115.304 259.858C111.307 257.538 108.041 251.18 108.041 245.596C108.041 240.054 111.307 237.433 115.304 239.71C119.301 242.03 122.567 248.431 122.567 253.973Z" fill="white"/>
<path opacity="0.07" d="M156.905 111.263L285.789 185.625V253.801L156.862 179.439L156.905 111.263Z" fill="url(#paint2_linear)"/>
<path opacity="0.3" d="M139.671 119.855L268.556 194.217V262.393L139.671 188.031V119.855Z" fill="url(#paint3_linear)"/>
<path d="M151.232 160.451C151.232 165.95 154.498 172.265 158.495 174.585C162.491 176.905 165.757 174.327 165.757 168.828C165.757 163.33 162.491 157.015 158.495 154.695C154.498 152.375 151.232 154.953 151.232 160.451Z" fill="white"/>
<path opacity="0.15" d="M169.411 171.062C169.411 173.597 170.915 176.561 172.806 177.635C174.654 178.709 176.158 177.506 176.158 174.971C176.158 172.437 174.654 169.473 172.763 168.399C170.915 167.325 169.411 168.528 169.411 171.062Z" fill="white"/>
<path opacity="0.15" d="M179.768 177.033C179.768 179.568 181.272 182.532 183.163 183.606C185.011 184.68 186.515 183.477 186.515 180.943C186.515 178.408 185.011 175.444 183.12 174.37C181.272 173.296 179.768 174.499 179.768 177.033Z" fill="white"/>
<path opacity="0.15" d="M236.023 188.632V227.424L230.952 224.503V185.711L236.023 188.632Z" fill="white"/>
<path opacity="0.15" d="M247.111 195.076V233.868L242.04 230.947V192.155L247.111 195.076Z" fill="white"/>
<path opacity="0.15" d="M258.241 201.52V240.312L253.17 237.39V198.599L258.241 201.52Z" fill="white"/>
<path opacity="0.07" d="M156.862 204.441L285.746 278.803V346.979L156.862 272.617V204.441Z" fill="url(#paint4_linear)"/>
<path opacity="0.3" d="M139.671 213.463L268.556 287.824V356L139.671 281.638V213.463Z" fill="url(#paint5_linear)"/>
<path d="M151.232 254.059C151.232 259.557 154.498 265.872 158.495 268.192C162.491 270.512 165.757 267.934 165.757 262.436C165.757 256.937 162.491 250.622 158.495 248.302C154.498 245.982 151.232 248.56 151.232 254.059Z" fill="white"/>
<path opacity="0.15" d="M169.411 264.712C169.411 267.247 170.915 270.211 172.806 271.285C174.654 272.359 176.158 271.156 176.158 268.622C176.158 266.087 174.654 263.123 172.763 262.049C170.915 260.975 169.411 262.135 169.411 264.712Z" fill="white"/>
<path opacity="0.15" d="M179.725 270.684C179.725 273.218 181.229 276.182 183.12 277.256C184.968 278.33 186.472 277.127 186.472 274.593C186.472 272.058 184.968 269.094 183.077 268.02C181.229 266.903 179.725 268.106 179.725 270.684Z" fill="white"/>
<path opacity="0.15" d="M236.023 283.571V322.363L230.952 319.442V280.65L236.023 283.571Z" fill="white"/>
<path opacity="0.15" d="M247.111 290.015V328.807L242.04 325.886V287.094L247.111 290.015Z" fill="white"/>
<path opacity="0.15" d="M258.241 296.459V335.251L253.17 332.33V293.538L258.241 296.459Z" fill="white"/>
<path opacity="0.3" d="M25.2269 18.8589L105.549 65.2115V213.978L25.2269 167.582V18.8589Z" fill="url(#paint6_linear)"/>
<path d="M74.8209 72.7293C74.8209 80.1612 70.5233 83.6838 65.2373 80.5908C59.9513 77.4977 55.6537 68.9919 55.6537 61.56C55.6537 54.1281 59.9513 50.6055 65.2373 53.6986C70.5233 56.7916 74.8209 65.2974 74.8209 72.7293Z" fill="white"/>
<path d="M65.2373 86.5622C56.6851 81.579 49.637 86.2615 48.3907 97.0012C48.1759 98.8484 49.5941 101.34 51.3131 102.328L79.2044 118.609C80.9234 119.598 82.3416 118.824 82.1268 116.676C80.8375 104.433 73.7465 91.5454 65.2373 86.5622Z" fill="white"/>
<path opacity="0.15" d="M41.3429 115.344L89.218 142.967V148.809L41.3429 121.187V115.344Z" fill="white"/>
<path opacity="0.15" d="M46.199 129.736L84.1466 151.602V157.444L46.199 135.578V129.736Z" fill="white"/>
<path d="M55.8686 154.308L0 122.046V138.671L55.8686 170.933V154.308Z" fill="white"/>
<path opacity="0.2" d="M122.868 0L134.815 23.4555C136.448 26.6774 136.19 29.8994 134.214 30.6726C132.237 31.4459 129.314 29.4268 127.681 26.2049L127.552 25.9042V51.9372C127.552 54.9014 125.489 56.1042 122.911 54.6436C120.332 53.1401 118.27 49.5745 118.27 46.6103V20.5773L118.141 20.7062C116.508 22.0379 113.542 20.6632 111.608 17.6131C109.631 14.563 109.374 11.0404 111.007 9.7087L122.868 0Z" fill="url(#paint7_linear)"/>
<path opacity="0.2" d="M122.868 346.334L110.921 322.879C109.287 319.657 109.545 316.435 111.522 315.662C113.499 314.888 116.421 316.907 118.055 320.129L118.183 320.43V294.397C118.183 291.433 120.246 290.23 122.825 291.691C125.403 293.194 127.466 296.76 127.466 299.724V325.757L127.595 325.628C129.228 324.296 132.194 325.671 134.128 328.721C136.104 331.771 136.362 335.294 134.729 336.626L122.868 346.334Z" fill="url(#paint8_linear)"/>
<defs>
<linearGradient id="paint0_linear" x1="349.312" y1="68.0187" x2="216.383" y2="194.155" gradientUnits="userSpaceOnUse">
<stop stop-color="white"/>
<stop offset="1" stop-color="white" stop-opacity="0"/>
</linearGradient>
<linearGradient id="paint1_linear" x1="327.82" y1="88.6391" x2="194.891" y2="214.775" gradientUnits="userSpaceOnUse">
<stop stop-color="white"/>
<stop offset="1" stop-color="white" stop-opacity="0"/>
</linearGradient>
<linearGradient id="paint2_linear" x1="218.691" y1="116.715" x2="223.489" y2="237.309" gradientUnits="userSpaceOnUse">
<stop stop-color="white"/>
<stop offset="1" stop-color="white" stop-opacity="0"/>
</linearGradient>
<linearGradient id="paint3_linear" x1="201.5" y1="125.307" x2="206.298" y2="245.901" gradientUnits="userSpaceOnUse">
<stop stop-color="white"/>
<stop offset="1" stop-color="white" stop-opacity="0"/>
</linearGradient>
<linearGradient id="paint4_linear" x1="218.681" y1="209.907" x2="223.48" y2="330.501" gradientUnits="userSpaceOnUse">
<stop stop-color="white"/>
<stop offset="1" stop-color="white" stop-opacity="0"/>
</linearGradient>
<linearGradient id="paint5_linear" x1="201.491" y1="218.929" x2="206.289" y2="339.522" gradientUnits="userSpaceOnUse">
<stop stop-color="white"/>
<stop offset="1" stop-color="white" stop-opacity="0"/>
</linearGradient>
<linearGradient id="paint6_linear" x1="114.157" y1="31.9336" x2="42.8978" y2="155.439" gradientUnits="userSpaceOnUse">
<stop stop-color="white"/>
<stop offset="1" stop-color="white" stop-opacity="0"/>
</linearGradient>
<linearGradient id="paint7_linear" x1="131.37" y1="23.66" x2="109.576" y2="35.8136" gradientUnits="userSpaceOnUse">
<stop stop-color="white"/>
<stop offset="1" stop-color="white" stop-opacity="0"/>
</linearGradient>
<linearGradient id="paint8_linear" x1="114.343" y1="322.69" x2="136.137" y2="310.537" gradientUnits="userSpaceOnUse">
<stop stop-color="white"/>
<stop offset="1" stop-color="white" stop-opacity="0"/>
</linearGradient>
</defs>
</svg>
